<svg width="24" height="24" viewBox="0 0 24 24" fill="none" xmlns="http://www.w3.org/2000/svg">
<path fill-rule="evenodd" clip-rule="evenodd" d="M5.15128 5.15146C5.61991 4.68283 6.3797 4.68283 6.84833 5.15146L11.9998 10.3029L17.1513 5.15146C17.6199 4.68283 18.3797 4.68283 18.8483 5.15146C19.317 5.62009 19.317 6.37989 18.8483 6.84852L13.6969 12L18.8483 17.1515C19.317 17.6201 19.317 18.3799 18.8483 18.8485C18.3797 19.3171 17.6199 19.3171 17.1513 18.8485L11.9998 13.697L6.84833 18.8485C6.3797 19.3171 5.61991 19.3171 5.15128 18.8485C4.68265 18.3799 4.68265 17.6201 5.15128 17.1515L10.3027 12L5.15128 6.84852C4.68265 6.37989 4.68265 5.62009 5.15128 5.15146Z" fill="#FA0F0F"/>
</svg>
