<svg width="22" height="22" viewBox="0 0 22 22" fill="none" xmlns="http://www.w3.org/2000/svg">
<path d="M19.25 12.1508C16.7023 13.1821 13.9175 13.75 11 13.75C8.08253 13.75 5.29769 13.1821 2.75 12.1508M14.6667 5.49998V3.66665C14.6667 2.65412 13.8459 1.83331 12.8333 1.83331H9.16667C8.15414 1.83331 7.33333 2.65412 7.33333 3.66665V5.49998M11 11H11.0092M4.58333 18.3333H17.4167C18.4292 18.3333 19.25 17.5125 19.25 16.5V7.33331C19.25 6.32079 18.4292 5.49998 17.4167 5.49998H4.58333C3.57081 5.49998 2.75 6.32079 2.75 7.33331V16.5C2.75 17.5125 3.57081 18.3333 4.58333 18.3333Z" stroke="#currentColor" stroke-width="2" stroke-linecap="round" stroke-linejoin="round"/>
</svg>
