<svg width="22" height="22" viewBox="0 0 22 22" fill="none" xmlns="http://www.w3.org/2000/svg">
<path d="M3.66675 5.50002C3.66675 4.4875 4.48756 3.66669 5.50008 3.66669H7.33341C8.34594 3.66669 9.16675 4.4875 9.16675 5.50002V7.33335C9.16675 8.34588 8.34594 9.16669 7.33341 9.16669H5.50008C4.48756 9.16669 3.66675 8.34588 3.66675 7.33335V5.50002Z" stroke="currentColor" stroke-width="2" stroke-linecap="round" stroke-linejoin="round"/>
<path d="M12.8334 5.50002C12.8334 4.4875 13.6542 3.66669 14.6667 3.66669H16.5001C17.5126 3.66669 18.3334 4.4875 18.3334 5.50002V7.33335C18.3334 8.34588 17.5126 9.16669 16.5001 9.16669H14.6667C13.6542 9.16669 12.8334 8.34588 12.8334 7.33335V5.50002Z" stroke="currentColor" stroke-width="2" stroke-linecap="round" stroke-linejoin="round"/>
<path d="M3.66675 14.6667C3.66675 13.6542 4.48756 12.8334 5.50008 12.8334H7.33341C8.34594 12.8334 9.16675 13.6542 9.16675 14.6667V16.5C9.16675 17.5125 8.34594 18.3334 7.33341 18.3334H5.50008C4.48756 18.3334 3.66675 17.5125 3.66675 16.5V14.6667Z" stroke="currentColor" stroke-width="2" stroke-linecap="round" stroke-linejoin="round"/>
<path d="M12.8334 14.6667C12.8334 13.6542 13.6542 12.8334 14.6667 12.8334H16.5001C17.5126 12.8334 18.3334 13.6542 18.3334 14.6667V16.5C18.3334 17.5125 17.5126 18.3334 16.5001 18.3334H14.6667C13.6542 18.3334 12.8334 17.5125 12.8334 16.5V14.6667Z" stroke="currentColor" stroke-width="2" stroke-linecap="round" stroke-linejoin="round"/>
</svg>
