<svg width="40" height="40" viewBox="0 0 40 40" fill="none" xmlns="http://www.w3.org/2000/svg">
<path d="M28.3332 18.3333H15.6832L21.1832 12.85C21.497 12.5361 21.6734 12.1105 21.6734 11.6667C21.6734 11.2228 21.497 10.7972 21.1832 10.4833C20.8694 10.1695 20.4437 9.99316 19.9999 9.99316C19.556 9.99316 19.1304 10.1695 18.8165 10.4833L10.4832 18.8167C10.3315 18.9752 10.2125 19.1621 10.1332 19.3667C9.9665 19.7724 9.9665 20.2275 10.1332 20.6333C10.2125 20.8379 10.3315 21.0248 10.4832 21.1833L18.8165 29.5166C18.9715 29.6729 19.1558 29.7969 19.3589 29.8815C19.562 29.9661 19.7798 30.0096 19.9999 30.0096C20.2199 30.0096 20.4377 29.9661 20.6408 29.8815C20.8439 29.7969 21.0283 29.6729 21.1832 29.5166C21.3394 29.3617 21.4634 29.1774 21.548 28.9743C21.6326 28.7712 21.6762 28.5533 21.6762 28.3333C21.6762 28.1133 21.6326 27.8955 21.548 27.6924C21.4634 27.4893 21.3394 27.3049 21.1832 27.15L15.6832 21.6667H28.3332C28.7752 21.6667 29.1992 21.4911 29.5117 21.1785C29.8243 20.8659 29.9999 20.442 29.9999 20C29.9999 19.558 29.8243 19.134 29.5117 18.8215C29.1992 18.5089 28.7752 18.3333 28.3332 18.3333Z" fill="black"/>
</svg>
