<svg width="128" height="29" viewBox="0 0 128 29" fill="none" xmlns="http://www.w3.org/2000/svg">
<path d="M1.51705 23H12.6903V19.9574H5.20739V5.54545H1.51705V23ZM18.799 23.2472C20.7337 23.2472 21.9865 22.4034 22.6257 21.1847H22.728V23H26.1712V14.1705C26.1712 11.0511 23.5291 9.73864 20.6143 9.73864C17.478 9.73864 15.4155 11.2386 14.9126 13.625L18.2706 13.8977C18.5178 13.0284 19.2933 12.3892 20.5973 12.3892C21.8331 12.3892 22.5405 13.0114 22.5405 14.0852V14.1364C22.5405 14.9801 21.6456 15.0909 19.37 15.3125C16.7791 15.5511 14.4524 16.4205 14.4524 19.3438C14.4524 21.9347 16.3018 23.2472 18.799 23.2472ZM19.8388 20.7415C18.7223 20.7415 17.9212 20.2216 17.9212 19.2244C17.9212 18.2017 18.7649 17.6989 20.0433 17.5199C20.8359 17.4091 22.1314 17.2216 22.5661 16.9318V18.321C22.5661 19.6932 21.4325 20.7415 19.8388 20.7415ZM32.6186 15.4318C32.6271 13.7443 33.6328 12.7557 35.0987 12.7557C36.5561 12.7557 37.4339 13.7102 37.4254 15.3125V23H41.0561V14.6648C41.0561 11.6136 39.2663 9.73864 36.5391 9.73864C34.5959 9.73864 33.1896 10.6932 32.6016 12.2188H32.4482V9.90909H28.9879V23H32.6186V15.4318ZM48.7415 23.2131C50.8551 23.2131 51.9545 21.9943 52.4574 20.9034H52.6108V23H56.1903V5.54545H52.5682V12.108H52.4574C51.9716 11.0426 50.9233 9.73864 48.733 9.73864C45.8608 9.73864 43.4318 11.9716 43.4318 16.4716C43.4318 20.8523 45.7585 23.2131 48.7415 23.2131ZM49.892 20.3239C48.1108 20.3239 47.1392 18.7386 47.1392 16.4545C47.1392 14.1875 48.0938 12.6278 49.892 12.6278C51.6562 12.6278 52.6449 14.1193 52.6449 16.4545C52.6449 18.7898 51.6392 20.3239 49.892 20.3239ZM59.1754 23H62.8061V9.90909H59.1754V23ZM60.9993 8.22159C62.0817 8.22159 62.968 7.39489 62.968 6.38068C62.968 5.375 62.0817 4.54829 60.9993 4.54829C59.9254 4.54829 59.0391 5.375 59.0391 6.38068C59.0391 7.39489 59.9254 8.22159 60.9993 8.22159ZM69.3452 15.4318C69.3537 13.7443 70.3594 12.7557 71.8253 12.7557C73.2827 12.7557 74.1605 13.7102 74.152 15.3125V23H77.7827V14.6648C77.7827 11.6136 75.9929 9.73864 73.2656 9.73864C71.3224 9.73864 69.9162 10.6932 69.3281 12.2188H69.1747V9.90909H65.7145V23H69.3452V15.4318ZM86.5419 28.1818C90.2834 28.1818 92.9425 26.4773 92.9425 23.1278V9.90909H89.3374V12.108H89.201C88.7152 11.0426 87.6499 9.73864 85.4595 9.73864C82.5874 9.73864 80.1584 11.9716 80.1584 16.429C80.1584 20.7841 82.5192 22.8125 85.468 22.8125C87.5561 22.8125 88.7237 21.7642 89.201 20.6818H89.3544V23.0767C89.3544 24.875 88.2038 25.5739 86.6271 25.5739C85.0249 25.5739 84.2152 24.875 83.9169 24.0824L80.5589 24.5341C80.9936 26.5966 83.0135 28.1818 86.5419 28.1818ZM86.6186 20.0852C84.8374 20.0852 83.8658 18.6705 83.8658 16.4119C83.8658 14.1875 84.8203 12.6278 86.6186 12.6278C88.3828 12.6278 89.3714 14.1193 89.3714 16.4119C89.3714 18.7216 88.3658 20.0852 86.6186 20.0852ZM95.8999 23H99.5902V18.0398L101.406 15.8239L106.187 23H110.602L104.048 13.3608L110.525 5.54545H106.102L99.8203 13.2415H99.5902V5.54545H95.8999V23ZM113.199 23H116.83V9.90909H113.199V23ZM115.023 8.22159C116.105 8.22159 116.991 7.39489 116.991 6.38068C116.991 5.375 116.105 4.54829 115.023 4.54829C113.949 4.54829 113.062 5.375 113.062 6.38068C113.062 7.39489 113.949 8.22159 115.023 8.22159ZM126.701 9.90909H124.238V6.77273H120.607V9.90909H118.817V12.6364H120.607V19.4545C120.59 22.0199 122.337 23.2898 124.971 23.179C125.908 23.1449 126.573 22.9574 126.94 22.8381L126.369 20.1364C126.19 20.1705 125.806 20.2557 125.465 20.2557C124.741 20.2557 124.238 19.983 124.238 18.9773V12.6364H126.701V9.90909Z" fill="#2D2F30"/>
</svg>
