<svg width="136" height="28" viewBox="0 0 136 28" fill="none" xmlns="http://www.w3.org/2000/svg">
<path d="M0 11.6502C0 5.21641 5.21562 0.000793457 11.6494 0.000793457V16.3507C11.6494 22.7845 6.43379 28.0001 0 28.0001L0 11.6502Z" fill="#22D3EE"/>
<path d="M13.3394 6.3302C13.3394 2.83413 16.1735 0 19.6696 0C23.1656 0 25.9997 2.83412 25.9997 6.3302V6.81666C25.9997 10.3127 23.1656 13.1469 19.6696 13.1469C16.1735 13.1469 13.3394 10.3127 13.3394 6.81666V6.3302Z" fill="#FF1AA7"/>
<path d="M13.3396 21.1829C13.3396 17.6868 16.1737 14.8527 19.6698 14.8527C23.1659 14.8527 26 17.6868 26 21.1829V21.6693C26 25.1654 23.1659 27.9995 19.6698 27.9995C16.1737 27.9995 13.3396 25.1654 13.3396 21.6693V21.1829Z" fill="#7742E8"/>
<path d="M43.632 22.0001V5.20006H49.368C51.336 5.20006 52.952 5.55206 54.216 6.25606C55.496 6.94406 56.44 7.92006 57.048 9.18406C57.672 10.4321 57.984 11.9041 57.984 13.6001C57.984 15.2961 57.672 16.7761 57.048 18.0401C56.44 19.2881 55.496 20.2641 54.216 20.9681C52.952 21.6561 51.336 22.0001 49.368 22.0001H43.632ZM46.704 19.3601H49.224C50.632 19.3601 51.744 19.1361 52.56 18.6881C53.376 18.2241 53.96 17.5681 54.312 16.7201C54.664 15.8561 54.84 14.8161 54.84 13.6001C54.84 12.4001 54.664 11.3681 54.312 10.5041C53.96 9.64006 53.376 8.97606 52.56 8.51206C51.744 8.04806 50.632 7.81606 49.224 7.81606H46.704V19.3601ZM66.3345 22.2881C65.1825 22.2881 64.1425 22.0241 63.2145 21.4961C62.3025 20.9681 61.5745 20.2401 61.0305 19.3121C60.5025 18.3681 60.2385 17.2801 60.2385 16.0481C60.2385 14.8161 60.5105 13.7361 61.0545 12.8081C61.5985 11.8641 62.3265 11.1281 63.2385 10.6001C64.1665 10.0721 65.2065 9.80806 66.3585 9.80806C67.4945 9.80806 68.5185 10.0721 69.4305 10.6001C70.3585 11.1281 71.0865 11.8641 71.6145 12.8081C72.1585 13.7361 72.4305 14.8161 72.4305 16.0481C72.4305 17.2801 72.1585 18.3681 71.6145 19.3121C71.0865 20.2401 70.3585 20.9681 69.4305 21.4961C68.5025 22.0241 67.4705 22.2881 66.3345 22.2881ZM66.3345 19.6241C67.1345 19.6241 67.8305 19.3281 68.4225 18.7361C69.0145 18.1281 69.3105 17.2321 69.3105 16.0481C69.3105 14.8641 69.0145 13.9761 68.4225 13.3841C67.8305 12.7761 67.1425 12.4721 66.3585 12.4721C65.5425 12.4721 64.8385 12.7761 64.2465 13.3841C63.6705 13.9761 63.3825 14.8641 63.3825 16.0481C63.3825 17.2321 63.6705 18.1281 64.2465 18.7361C64.8385 19.3281 65.5345 19.6241 66.3345 19.6241ZM81.0092 22.2881C79.7932 22.2881 78.7212 22.0241 77.7932 21.4961C76.8652 20.9681 76.1292 20.2321 75.5852 19.2881C75.0572 18.3441 74.7932 17.2641 74.7932 16.0481C74.7932 14.8321 75.0572 13.7521 75.5852 12.8081C76.1292 11.8641 76.8652 11.1281 77.7932 10.6001C78.7212 10.0721 79.7932 9.80806 81.0092 9.80806C82.5292 9.80806 83.8092 10.2081 84.8492 11.0081C85.8892 11.7921 86.5532 12.8801 86.8412 14.2721H83.6012C83.4412 13.6961 83.1212 13.2481 82.6412 12.9281C82.1772 12.5921 81.6252 12.4241 80.9852 12.4241C80.1372 12.4241 79.4172 12.7441 78.8252 13.3841C78.2332 14.0241 77.9372 14.9121 77.9372 16.0481C77.9372 17.1841 78.2332 18.0721 78.8252 18.7121C79.4172 19.3521 80.1372 19.6721 80.9852 19.6721C81.6252 19.6721 82.1772 19.5121 82.6412 19.1921C83.1212 18.8721 83.4412 18.4161 83.6012 17.8241H86.8412C86.5532 19.1681 85.8892 20.2481 84.8492 21.0641C83.8092 21.8801 82.5292 22.2881 81.0092 22.2881ZM94.7077 22.0001C93.4597 22.0001 92.4597 21.6961 91.7077 21.0881C90.9557 20.4801 90.5797 19.4001 90.5797 17.8481V12.6641H88.5397V10.0961H90.5797L90.9397 6.90406H93.6517V10.0961H96.8677V12.6641H93.6517V17.8721C93.6517 18.4481 93.7717 18.8481 94.0117 19.0721C94.2677 19.2801 94.6997 19.3841 95.3077 19.3841H96.7957V22.0001H94.7077ZM104.985 22.2881C103.785 22.2881 102.721 22.0321 101.793 21.5201C100.865 21.0081 100.137 20.2881 99.6086 19.3601C99.0806 18.4321 98.8166 17.3601 98.8166 16.1441C98.8166 14.9121 99.0726 13.8161 99.5846 12.8561C100.113 11.8961 100.833 11.1521 101.745 10.6241C102.673 10.0801 103.761 9.80806 105.009 9.80806C106.177 9.80806 107.209 10.0641 108.105 10.5761C109.001 11.0881 109.697 11.7921 110.193 12.6881C110.705 13.5681 110.961 14.5521 110.961 15.6401C110.961 15.8161 110.953 16.0001 110.937 16.1921C110.937 16.3841 110.929 16.5841 110.913 16.7921H101.865C101.929 17.7201 102.249 18.4481 102.825 18.9761C103.417 19.5041 104.129 19.7681 104.961 19.7681C105.585 19.7681 106.105 19.6321 106.521 19.3601C106.953 19.0721 107.273 18.7041 107.481 18.2561H110.601C110.377 19.0081 110.001 19.6961 109.473 20.3201C108.961 20.9281 108.321 21.4081 107.553 21.7601C106.801 22.1121 105.945 22.2881 104.985 22.2881ZM105.009 12.3041C104.257 12.3041 103.593 12.5201 103.017 12.9521C102.441 13.3681 102.073 14.0081 101.913 14.8721H107.841C107.793 14.0881 107.505 13.4641 106.977 13.0001C106.449 12.5361 105.793 12.3041 105.009 12.3041ZM113.544 22.0001V10.0961H116.28L116.568 12.3281C117 11.5601 117.584 10.9521 118.32 10.5041C119.072 10.0401 119.952 9.80806 120.96 9.80806V13.0481H120.096C119.424 13.0481 118.824 13.1521 118.296 13.3601C117.768 13.5681 117.352 13.9281 117.048 14.4401C116.76 14.9521 116.616 15.6641 116.616 16.5761V22.0001H113.544ZM128.561 22.2881C127.409 22.2881 126.369 22.0241 125.441 21.4961C124.529 20.9681 123.801 20.2401 123.257 19.3121C122.729 18.3681 122.465 17.2801 122.465 16.0481C122.465 14.8161 122.737 13.7361 123.281 12.8081C123.825 11.8641 124.553 11.1281 125.465 10.6001C126.393 10.0721 127.433 9.80806 128.585 9.80806C129.721 9.80806 130.745 10.0721 131.657 10.6001C132.585 11.1281 133.313 11.8641 133.841 12.8081C134.385 13.7361 134.657 14.8161 134.657 16.0481C134.657 17.2801 134.385 18.3681 133.841 19.3121C133.313 20.2401 132.585 20.9681 131.657 21.4961C130.729 22.0241 129.697 22.2881 128.561 22.2881ZM128.561 19.6241C129.361 19.6241 130.057 19.3281 130.649 18.7361C131.241 18.1281 131.537 17.2321 131.537 16.0481C131.537 14.8641 131.241 13.9761 130.649 13.3841C130.057 12.7761 129.369 12.4721 128.585 12.4721C127.769 12.4721 127.065 12.7761 126.473 13.3841C125.897 13.9761 125.609 14.8641 125.609 16.0481C125.609 17.2321 125.897 18.1281 126.473 18.7361C127.065 19.3281 127.761 19.6241 128.561 19.6241Z" fill="#170F49"/>
</svg>
