<svg width="23" height="22" viewBox="0 0 23 22" fill="none" xmlns="http://www.w3.org/2000/svg">
<path d="M17.6667 10.0833H4.83333M17.6667 10.0833C18.6792 10.0833 19.5 10.9041 19.5 11.9167V17.4167C19.5 18.4292 18.6792 19.25 17.6667 19.25H4.83333C3.82081 19.25 3 18.4292 3 17.4167V11.9167C3 10.9041 3.82081 10.0833 4.83333 10.0833M17.6667 10.0833V8.25C17.6667 7.23748 16.8459 6.41667 15.8333 6.41667M4.83333 10.0833V8.25C4.83333 7.23748 5.65414 6.41667 6.66667 6.41667M6.66667 6.41667V4.58333C6.66667 3.57081 7.48748 2.75 8.5 2.75H14C15.0125 2.75 15.8333 3.57081 15.8333 4.58333V6.41667M6.66667 6.41667H15.8333" stroke="#currentColor" stroke-width="2" stroke-linecap="round" stroke-linejoin="round"/>
</svg>
