<svg width="40" height="40" viewBox="0 0 40 40" fill="none" xmlns="http://www.w3.org/2000/svg">
<rect width="40" height="40" rx="20" fill="#F5F5F8"/>
<mask id="mask0_491_1255" style="mask-type:alpha" maskUnits="userSpaceOnUse" x="0" y="0" width="40" height="40">
<rect width="40" height="40" rx="20" fill="white"/>
</mask>
<g mask="url(#mask0_491_1255)">
<path fill-rule="evenodd" clip-rule="evenodd" d="M34.5514 35.3595C33.3723 33.6538 31.634 32.414 29.6373 31.8547L24.9998 30.5556V27.2224C26.9603 25.7497 28.2477 23.4322 28.3268 20.8108C28.6008 20.9316 28.9033 21 29.2222 21C30.4494 21 31.4444 20.0051 31.4444 18.7778C31.4444 17.5505 30.4494 16.5556 29.2222 16.5556C28.9058 16.5556 28.6056 16.6226 28.3333 16.7417V16.1111C28.3333 11.5087 24.6023 7.7778 20 7.7778H19.9998C15.3975 7.7778 11.6666 11.5087 11.6666 16.1111V16.7417C11.3942 16.6226 11.094 16.5556 10.7777 16.5556C9.55039 16.5556 8.5555 17.5505 8.5555 18.7778C8.5555 20.0051 9.55039 21 10.7777 21C11.0965 21 11.3989 20.9317 11.6731 20.8108C11.7521 23.4322 13.0395 25.7497 14.9998 27.2224V30.5556L10.3625 31.8547C8.36584 32.414 6.6275 33.6538 5.44839 35.3595L2.22217 40.0267V43.3334H37.7777V40.0267L34.5514 35.3595Z" fill="#E9ADA1"/>
<path fill-rule="evenodd" clip-rule="evenodd" d="M19.9998 28.8889C18.9723 28.8889 17.9887 28.7018 17.0798 28.3617C18.3725 29.1874 19.9076 29.6667 21.5554 29.6667C22.7843 29.6667 23.9497 29.3985 24.9998 28.9211V27.2223C23.6071 28.2685 21.8759 28.8889 19.9998 28.8889Z" fill="#DB8B79"/>
<path d="M11.9564 19.1021C11.9848 18.9989 12 18.8901 12 18.7779C12 18.1029 11.4528 17.5556 10.7778 17.5556C10.609 17.5556 10.4482 17.5899 10.302 17.6516" stroke="#00004D" stroke-width="0.2" stroke-linecap="round" stroke-linejoin="round"/>
<path d="M28.0434 19.1021C28.0151 18.9989 28 18.8901 28 18.7779C28 18.1029 28.5472 17.5556 29.2222 17.5556C29.3909 17.5556 29.5517 17.5899 29.698 17.6516" stroke="#00004D" stroke-width="0.2" stroke-linecap="round" stroke-linejoin="round"/>
<path fill-rule="evenodd" clip-rule="evenodd" d="M22.222 23.7788C22.222 25.0061 21.2271 26.001 19.9998 26.001C18.7725 26.001 17.7776 25.0061 17.7776 23.7788H22.222Z" fill="white"/>
<path fill-rule="evenodd" clip-rule="evenodd" d="M24.5556 19.1111C24.5556 19.602 24.1576 20 23.6667 20C23.1758 20 22.7778 19.602 22.7778 19.1111C22.7778 18.6202 23.1758 18.2222 23.6667 18.2222C24.1576 18.2222 24.5556 18.6202 24.5556 19.1111Z" fill="#00004D"/>
<path fill-rule="evenodd" clip-rule="evenodd" d="M17.2221 19.1111C17.2221 19.602 16.8241 20 16.3332 20C15.8423 20 15.4443 19.602 15.4443 19.1111C15.4443 18.6202 15.8423 18.2222 16.3332 18.2222C16.8241 18.2222 17.2221 18.6202 17.2221 19.1111Z" fill="#00004D"/>
<path d="M19.9999 18.2222L21.111 22L19.5554 22.2222" stroke="#00004D" stroke-width="0.2" stroke-linecap="round" stroke-linejoin="round"/>
<path fill-rule="evenodd" clip-rule="evenodd" d="M12.3688 17.2282C14.4666 16.2747 16.217 14.6913 17.3733 12.7156C20.0711 15.2947 23.6338 16.9757 27.5822 17.2817C27.9569 16.8714 28.482 16.6011 29.0712 16.5612L28.7797 14.7155C28.5937 13.5375 28.176 12.4368 27.5754 11.4605C26.804 10.2067 25.7297 9.1605 24.4549 8.42039C23.1448 7.65983 21.6238 7.22217 19.9999 7.22217C19.6227 7.22217 19.2512 7.24683 18.8866 7.29261C17.681 7.44395 16.5507 7.83661 15.5449 8.42039C15.1867 8.6285 14.8448 8.86139 14.5204 9.11561C13.6908 9.76583 12.979 10.5592 12.4243 11.4605C11.8238 12.4368 11.4061 13.5375 11.2201 14.7154V14.7155L10.9282 16.5634C11.4919 16.6013 11.998 16.8475 12.3688 17.2282Z" fill="#00004D"/>
<path fill-rule="evenodd" clip-rule="evenodd" d="M37.7777 40.0267L34.5514 35.3595C33.3724 33.6539 31.6341 32.414 29.6373 31.8547L24.9999 30.5556C24.9999 33.317 22.7614 35.5556 19.9999 35.5556C17.2385 35.5556 14.9999 33.317 14.9999 30.5556L10.3625 31.8547C8.36584 32.414 6.6275 33.6539 5.44839 35.3595L2.22217 40.0267V43.3333H37.7777V40.0267Z" fill="#7742E8"/>
</g>
</svg>
