<svg width="23" height="22" viewBox="0 0 23 22" fill="none" xmlns="http://www.w3.org/2000/svg">
<path d="M11.75 3.99133C12.4219 3.23011 13.4049 2.75 14.5 2.75C16.525 2.75 18.1667 4.39162 18.1667 6.41667C18.1667 8.44171 16.525 10.0833 14.5 10.0833C13.4049 10.0833 12.4219 9.60322 11.75 8.842M14.5 19.25H3.5V18.3333C3.5 15.2958 5.96243 12.8333 9 12.8333C12.0376 12.8333 14.5 15.2958 14.5 18.3333V19.25ZM14.5 19.25H20V18.3333C20 15.2958 17.5376 12.8333 14.5 12.8333C13.4982 12.8333 12.559 13.1012 11.75 13.5691M12.6667 6.41667C12.6667 8.44171 11.025 10.0833 9 10.0833C6.97496 10.0833 5.33333 8.44171 5.33333 6.41667C5.33333 4.39162 6.97496 2.75 9 2.75C11.025 2.75 12.6667 4.39162 12.6667 6.41667Z" stroke="#currentColor" stroke-width="2" stroke-linecap="round" stroke-linejoin="round"/>
</svg>
