<svg width="328" height="250" viewBox="0 0 328 250" fill="none" xmlns="http://www.w3.org/2000/svg">
<g clip-path="url(#clip0_965_3053)">
<path d="M131.249 51.8442H130.053V19.0059C130.053 16.51 129.562 14.0386 128.608 11.7327C127.655 9.42678 126.258 7.33158 124.496 5.56672C122.734 3.80185 120.643 2.40189 118.341 1.44675C116.039 0.491608 113.572 2.11472e-06 111.081 0H41.633C36.6014 -9.60927e-06 31.7758 2.00238 28.2179 5.56668C24.66 9.13097 22.6611 13.9652 22.6611 19.0059V199.159C22.6611 201.655 23.1519 204.127 24.1053 206.433C25.0587 208.739 26.4561 210.834 28.2178 212.599C29.9795 214.364 32.071 215.763 34.3728 216.719C36.6745 217.674 39.1415 218.165 41.633 218.165H111.081C116.112 218.165 120.938 216.163 124.496 212.599C128.054 209.034 130.052 204.2 130.053 199.16V75.2191H131.249V51.8442Z" fill="#3F3D56"/>
<path d="M111.846 4.94458H102.781C103.198 5.96849 103.357 7.07939 103.244 8.17942C103.132 9.27945 102.751 10.3349 102.135 11.2527C101.519 12.1704 100.688 12.9225 99.7136 13.4425C98.7394 13.9625 97.6526 14.2345 96.5487 14.2346H56.7631C55.6592 14.2345 54.5724 13.9625 53.5982 13.4425C52.6241 12.9225 51.7925 12.1705 51.1768 11.2527C50.5611 10.3349 50.1801 9.27946 50.0675 8.17942C49.9549 7.07939 50.114 5.96849 50.5309 4.94458H42.064C40.2034 4.94458 38.3611 5.3117 36.6421 6.02499C34.9232 6.73827 33.3613 7.78375 32.0457 9.10173C30.7301 10.4197 29.6865 11.9844 28.9745 13.7064C28.2625 15.4284 27.896 17.2741 27.896 19.138V199.027C27.896 200.891 28.2625 202.737 28.9745 204.459C29.6865 206.181 30.7301 207.745 32.0457 209.063C33.3613 210.381 34.9232 211.427 36.6421 212.14C38.361 212.853 40.2034 213.221 42.0639 213.221H111.846C113.707 213.221 115.549 212.853 117.268 212.14C118.987 211.427 120.549 210.381 121.864 209.063C123.18 207.745 124.224 206.181 124.936 204.459C125.648 202.737 126.014 200.891 126.014 199.027V19.138C126.014 17.2741 125.648 15.4284 124.936 13.7064C124.224 11.9844 123.18 10.4197 121.864 9.10173C120.549 7.78375 118.987 6.73827 117.268 6.02499C115.549 5.3117 113.707 4.94458 111.846 4.94458Z" fill="white"/>
<path d="M153.508 218.197H0.401855C0.295276 218.197 0.193063 218.154 0.1177 218.079C0.0423378 218.003 0 217.901 0 217.794C0 217.687 0.0423378 217.585 0.1177 217.509C0.193063 217.434 0.295276 217.391 0.401855 217.391H153.508C153.615 217.391 153.717 217.434 153.793 217.509C153.868 217.585 153.91 217.687 153.91 217.794C153.91 217.901 153.868 218.003 153.793 218.079C153.717 218.154 153.615 218.197 153.508 218.197Z" fill="#CBCBCB"/>
<path d="M76.9551 139.163C95.697 139.163 110.89 123.942 110.89 105.166C110.89 86.391 95.697 71.1704 76.9551 71.1704C58.2133 71.1704 43.02 86.391 43.02 105.166C43.02 123.942 58.2133 139.163 76.9551 139.163Z" fill="#10B981"/>
<path d="M73.5925 118.135C72.8291 118.136 72.0859 117.889 71.4751 117.43L71.4372 117.402L63.462 111.29C63.0927 111.006 62.7827 110.652 62.5498 110.249C62.3169 109.845 62.1657 109.399 62.1047 108.937C62.0438 108.475 62.0743 108.005 62.1946 107.555C62.3148 107.104 62.5225 106.682 62.8057 106.312C63.0888 105.942 63.442 105.631 63.845 105.398C64.2479 105.165 64.6928 105.013 65.1542 104.952C65.6156 104.891 66.0845 104.922 66.5342 105.042C66.9838 105.163 67.4053 105.371 67.7747 105.654L72.9403 109.623L85.1472 93.669C85.4302 93.2991 85.7832 92.9887 86.186 92.7555C86.5888 92.5223 87.0335 92.3709 87.4947 92.3099C87.956 92.2488 88.4247 92.2794 88.8741 92.3998C89.3235 92.5203 89.7449 92.7282 90.1141 93.0118L90.1151 93.0125L90.0394 93.1179L90.1172 93.0125C90.862 93.586 91.3494 94.4322 91.4722 95.3652C91.5951 96.2982 91.3434 97.242 90.7725 97.9894L76.4146 116.746C76.0824 117.178 75.6553 117.528 75.1665 117.768C74.6776 118.008 74.1401 118.132 73.5956 118.131L73.5925 118.135Z" fill="white"/>
<path d="M278.986 221.538C279.398 220.869 279.884 220.249 280.435 219.688C280.661 219.452 280.901 219.23 281.147 219.014C282.648 217.676 284.477 216.763 286.447 216.368C288.416 215.973 290.455 216.111 292.354 216.767C294.253 217.423 295.943 218.574 297.251 220.102C298.559 221.629 299.436 223.478 299.794 225.458C301.452 219.318 297.137 213.27 292.8 208.624C288.46 203.98 283.5 198.885 283.524 192.522C283.537 188.981 285.266 185.822 287.876 183.48C287.957 183.409 288.037 183.338 288.119 183.27C291.275 180.56 295.334 179.143 299.487 179.301C307.202 179.715 313.939 184.91 318.617 191.071C326.148 200.986 329.447 214.903 324.176 226.189C319.539 236.115 309.649 242.009 299.556 246.748C298.146 247.409 296.74 248.051 295.336 248.673C295.327 248.676 295.317 248.682 295.307 248.685C295.24 248.715 295.172 248.744 295.109 248.775C294.819 248.903 294.529 249.031 294.242 249.158L294.375 249.245L294.79 249.514C294.646 249.427 294.504 249.342 294.36 249.255C294.317 249.228 294.272 249.203 294.229 249.177C289.272 246.197 284.246 243.045 280.821 238.393C277.27 233.563 275.842 226.644 278.986 221.538Z" fill="#F1F1F1"/>
<path d="M312.059 210.321C313.157 212.822 313.885 215.471 314.22 218.183C314.483 220.601 314.384 223.045 313.926 225.434C312.941 230.344 310.795 234.944 307.666 238.849C305.305 241.814 302.581 244.468 299.556 246.748C298.146 247.41 296.74 248.051 295.336 248.673C295.327 248.676 295.317 248.682 295.307 248.685C295.24 248.715 295.172 248.744 295.109 248.775C294.819 248.903 294.529 249.031 294.242 249.158L294.375 249.245L294.79 249.514C294.646 249.427 294.504 249.342 294.36 249.255C294.317 249.228 294.272 249.203 294.229 249.177C295.32 245.354 295.481 241.325 294.697 237.427C293.913 233.529 292.209 229.877 289.726 226.775C287.229 223.712 284.046 221.284 280.435 219.688C280.661 219.452 280.901 219.23 281.147 219.014C282.538 219.654 283.87 220.416 285.127 221.291C289.623 224.404 292.999 228.884 294.755 234.068C296.323 238.772 296.519 243.826 295.32 248.637C295.568 248.474 295.818 248.307 296.061 248.14C300.679 245.021 304.935 241.274 308.141 236.679C310.906 232.795 312.676 228.291 313.294 223.561C313.908 218.394 312.618 213.314 310.315 208.704C307.772 203.772 304.569 199.211 300.793 195.149C297 190.974 292.712 187.281 288.023 184.15C287.918 184.078 287.843 183.969 287.816 183.844C287.789 183.72 287.81 183.589 287.876 183.48C287.926 183.381 288.014 183.305 288.119 183.27C288.173 183.256 288.229 183.255 288.283 183.266C288.337 183.277 288.389 183.3 288.433 183.333C289.011 183.72 289.585 184.11 290.152 184.512C294.874 187.862 299.161 191.785 302.917 196.194C306.546 200.443 309.849 205.164 312.059 210.321Z" fill="white"/>
<path d="M210.991 15.7851C214.971 15.7851 218.197 12.5527 218.197 8.56529C218.197 4.57789 214.971 1.34546 210.991 1.34546C207.01 1.34546 203.784 4.57789 203.784 8.56529C203.784 12.5527 207.01 15.7851 210.991 15.7851Z" fill="#F1F1F1"/>
<path d="M300.604 112.404C303.031 112.404 304.998 110.433 304.998 108.002C304.998 105.571 303.031 103.6 300.604 103.6C298.177 103.6 296.21 105.571 296.21 108.002C296.21 110.433 298.177 112.404 300.604 112.404Z" fill="#F1F1F1"/>
<path d="M172.011 124.481C174.437 124.481 176.405 122.51 176.405 120.079C176.405 117.648 174.437 115.677 172.011 115.677C169.584 115.677 167.617 117.648 167.617 120.079C167.617 122.51 169.584 124.481 172.011 124.481Z" fill="#F1F1F1"/>
<path d="M174.492 250H327.598C327.705 250 327.807 249.958 327.883 249.882C327.958 249.807 328 249.704 328 249.597C328 249.491 327.958 249.388 327.883 249.313C327.807 249.237 327.705 249.195 327.598 249.195H174.492C174.385 249.195 174.283 249.237 174.208 249.313C174.132 249.388 174.09 249.491 174.09 249.597C174.09 249.704 174.132 249.807 174.208 249.882C174.283 249.958 174.385 250 174.492 250Z" fill="#CBCBCB"/>
<path d="M310.702 38.9029C310.903 37.473 310.573 36.0189 309.776 34.8161C308.978 33.6133 307.768 32.7455 306.374 32.377C304.98 32.0084 303.5 32.1649 302.214 32.8167C300.927 33.4684 299.924 34.5702 299.395 35.9133L286.971 50.1824L290.616 60.3824L303.111 43.7095C303.926 43.9712 304.789 44.0505 305.638 43.942C306.488 43.8336 307.303 43.5398 308.027 43.0816C308.75 42.6233 309.365 42.0116 309.827 41.2897C310.289 40.5677 310.588 39.753 310.702 38.9029Z" fill="#FFB7B7"/>
<path d="M259.202 94.4239L300.444 50.3301L294.881 41.4702L243.153 85.2963L259.202 94.4239Z" fill="#3F3D56"/>
<path d="M249.997 67.633C257.987 67.633 264.464 61.1443 264.464 53.1402C264.464 45.1361 257.987 38.6475 249.997 38.6475C242.007 38.6475 235.53 45.1361 235.53 53.1402C235.53 61.1443 242.007 67.633 249.997 67.633Z" fill="#2F2E41"/>
<path d="M251.16 44.953C254.273 41.7906 258.04 39.3502 262.196 37.8036C264.864 36.8135 267.767 36.2018 270.556 36.7641C273.346 37.3263 275.983 39.2593 276.761 42.0007C277.397 44.2424 276.741 46.656 275.753 48.7662C274.766 50.8764 273.447 52.8332 272.649 55.0222C271.834 57.2557 271.589 59.6577 271.936 62.0101C272.283 64.3625 273.211 66.5909 274.636 68.493C276.06 70.395 277.937 71.9105 280.094 72.9018C282.252 73.8931 284.622 74.3289 286.991 74.1696C284.25 74.5377 281.724 75.8279 279.046 76.5146C276.367 77.2013 273.206 77.1547 271.215 75.2323C269.109 73.1983 269.067 69.8912 269.169 66.9624C269.32 62.6085 269.471 58.2547 269.623 53.9008C269.7 51.6804 269.766 49.3889 268.967 47.3164C268.167 45.244 266.268 43.4293 264.05 43.4482C262.369 43.4624 260.882 44.4825 259.534 45.4884C258.186 46.4944 256.759 47.5676 255.085 47.7172C253.411 47.8669 251.499 46.6257 251.625 44.9465L251.16 44.953Z" fill="#2F2E41"/>
<path d="M195.051 150.452C193.662 150.839 192.18 150.701 190.885 150.066C189.591 149.431 188.574 148.342 188.027 147.006C187.48 145.67 187.442 144.18 187.919 142.817C188.396 141.454 189.355 140.314 190.615 139.613L203.113 125.408L213.683 127.696L198.816 142.285C199.181 143.061 199.373 143.907 199.376 144.765C199.38 145.622 199.196 146.47 198.837 147.249C198.478 148.028 197.953 148.718 197.299 149.272C196.645 149.825 195.877 150.228 195.051 150.452H195.051Z" fill="#FFB7B7"/>
<path d="M236.169 99.5995L205.019 138.77L195.524 134.403L232.137 77.2996L236.169 99.5995Z" fill="#3F3D56"/>
<path d="M211.314 217.879L203.891 217.762L204.784 243.111H211.313L211.314 217.879Z" fill="#FFB7B7"/>
<path d="M212.979 240.975L200.119 240.975H200.119C197.945 240.975 195.861 241.84 194.324 243.379C192.787 244.919 191.923 247.007 191.923 249.184V249.451L212.979 249.452L212.979 240.975Z" fill="#2F2E41"/>
<path d="M260.468 211.156L252.358 216.372L268.58 235.923L274.075 232.388L260.468 211.156Z" fill="#FFB7B7"/>
<path d="M274.325 229.69L263.504 236.65L263.503 236.65C261.674 237.826 260.387 239.683 259.924 241.81C259.461 243.937 259.861 246.162 261.035 247.994L261.179 248.219L278.897 236.823L274.325 229.69Z" fill="#2F2E41"/>
<path d="M263.357 133.752C263.357 133.752 245.338 73.7974 239.547 72.9872C233.757 72.177 224.426 88.3709 224.426 88.3709C212.329 103.833 199.855 153.919 199.855 153.919C199.855 153.919 220.65 155.222 235.851 163.324C251.052 171.426 268.991 162.914 268.991 162.914L263.357 133.752Z" fill="#3F3D56"/>
<path opacity="0.1" d="M263.357 133.752C263.357 133.752 245.338 73.7973 239.547 72.9871C233.757 72.1769 226.796 88.5351 226.796 88.5351C220.768 113.495 199.855 153.919 199.855 153.919C199.855 153.919 220.65 155.222 235.851 163.324C251.052 171.426 268.991 162.914 268.991 162.914L263.357 133.752Z" fill="black"/>
<path d="M248.574 115.814V145.941L252.113 189.582L269.795 222.593L261.356 228.632L237.245 197.231L227.708 166.052L212.731 235.073L201.479 234.268L209.294 138.571L224.123 111.635L248.574 115.814Z" fill="#2F2E41"/>
<path d="M230.406 86.6747C224.78 92.3107 230.004 98.3494 230.004 98.3494L223.575 112.842L248.892 119.686L257.739 80.0812L251.711 73.6399C239.655 73.2374 239.649 72.9871 239.649 72.9871C237.537 75.0578 230.406 86.6747 230.406 86.6747Z" fill="#2563EB"/>
<path d="M258.759 75.9781C257.609 75.1278 256.302 74.5145 254.914 74.1738C253.526 73.833 252.084 73.7716 250.672 73.993C249.26 74.2144 247.906 74.7143 246.688 75.4636C245.47 76.213 244.413 77.197 243.578 78.3586C237.213 87.2363 231.328 101.572 239.437 119.45C252.456 148.158 263.786 162.854 268.392 162.852C268.593 162.854 268.793 162.822 268.984 162.759C271.82 161.796 275.919 156.989 276.661 152.754C276.926 151.238 276.863 149.127 275.054 147.677C269.855 143.511 260.523 130.542 257.612 113.472C256.004 104.04 259.123 95.448 262.024 89.9014C263.249 87.6063 263.607 84.9458 263.033 82.4076C262.459 79.8693 260.991 77.6233 258.899 76.0813L258.759 75.9781Z" fill="#3F3D56"/>
<path d="M250.741 66.209C255.901 63.3829 257.798 56.9008 254.977 51.7309C252.156 46.561 245.685 44.6609 240.525 47.4871C235.364 50.3132 233.468 56.7953 236.289 61.9652C239.11 67.1351 245.58 69.0351 250.741 66.209Z" fill="#FFB7B7"/>
<path d="M230.656 56.0414H246.033L246.191 53.8297L246.98 56.0414H249.347L249.66 51.658L251.222 56.0414H255.804V55.8243C255.801 52.7725 254.589 49.8468 252.435 47.6889C250.281 45.531 247.36 44.3172 244.314 44.3137H242.146C239.1 44.3172 236.179 45.531 234.025 47.6889C231.871 49.8468 230.66 52.7725 230.656 55.8243V56.0414Z" fill="#2F2E41"/>
<path d="M253.481 63.9913L260.043 61.8582V45.8938H247.648L247.955 46.2007C252.225 50.4724 256.973 65.6279 253.481 63.9913Z" fill="#2F2E41"/>
</g>
<defs>
<clipPath id="clip0_965_3053">
<rect width="328" height="250" fill="white"/>
</clipPath>
</defs>
</svg>
